<?xml version="1.0" encoding="iso-8859-1"?>
<!-- Generator: Adobe Illustrator 16.0.0, SVG Export Plug-In . SVG Version: 6.00 Build 0)  -->
<!DOCTYPE svg PUBLIC "-//W3C//DTD SVG 1.1//EN" "http://www.w3.org/Graphics/SVG/1.1/DTD/svg11.dtd">
<svg version="1.1" id="Layer_1" xmlns="http://www.w3.org/2000/svg" xmlns:xlink="http://www.w3.org/1999/xlink" x="0px" y="0px"
	 width="960px" height="560px" viewBox="0 0 960 560" style="enable-background:new 0 0 960 560;" xml:space="preserve">
<linearGradient id="SVGID_1_" gradientUnits="userSpaceOnUse" x1="38.3076" y1="493.0977" x2="738.4933" y2="121.3838">
	<stop  offset="0" style="stop-color:#40C4FF"/>
	<stop  offset="0.9037" style="stop-color:#3FFFEC"/>
</linearGradient>
<path style="fill:url(#SVGID_1_);" d="M0,552.882c5.661-4.635,11.638-8.992,17.909-13.042
	c60.198-38.876,119.563-30.116,186.416-12.592c24.649,6.463,51.198-11.971,78.935-15.675c25.691-3.434,51.754-1.73,76.742,4.473
	c12.864,3.194,24.43,10.069,36.971,13.298c15.296,3.938,15.878,1.672,30.643-5.699c45.909-22.925,103.356-24.874,152.028-8.326
	c15.249,5.185,19.809,9.785,34.885,7.162c11.335-1.972,23.137-9.463,34.669-12.298c25.666-6.307,52.682-7.375,78.856-3.484
	c23.543,3.498,52.085,21.388,72.238,18.23c30.847-4.829,56.838-20.536,88.966-20.536c25.039,0,48.922,4.567,70.742,12.832
	c0-96.444,0-323.296,0-333.378c0-12.82-91.493-86.367-238.288-86.367S482.5-1.375,482.5-1.375L483,0H0V552.882z"/>
</svg>
